<?xml version="1.0" encoding="utf-8"?><!DOCTYPE svg PUBLIC "-//W3C//DTD SVG 1.1//EN" "http://www.w3.org/Graphics/SVG/1.1/DTD/svg11.dtd"><svg xmlns="http://www.w3.org/2000/svg" id="QRCode" viewBox="0 0 150 150" version="1.1"><g transform="translate(16.216 16.216) scale(0.405 0.405)"><rect width="290" height="290" clip-path="url(#main_clip)" fill="black"/></g><defs><path d="M0 0h10v10H0z" id="m"/><path d="M0 0h30v30H0z" id="i"/><path d="M0 0h70v70H0zm10 10v50h50V10z" id="o"/><clipPath id="main_clip"><use href="#o" x="0" y="0"/><use href="#o" x="220" y="0"/><use href="#o" x="0" y="220"/><use href="#i" x="20" y="20"/><use href="#i" x="240" y="20"/><use href="#i" x="20" y="240"/><use href="#m" x="90" y="0"/><use href="#m" x="140" y="0"/><use href="#m" x="160" y="0"/><use href="#m" x="180" y="0"/><use href="#m" x="80" y="10"/><use href="#m" x="120" y="10"/><use href="#m" x="130" y="10"/><use href="#m" x="140" y="10"/><use href="#m" x="160" y="10"/><use href="#m" x="180" y="10"/><use href="#m" x="200" y="10"/><use href="#m" x="80" y="20"/><use href="#m" x="90" y="20"/><use href="#m" x="100" y="20"/><use href="#m" x="110" y="20"/><use href="#m" x="120" y="20"/><use href="#m" x="140" y="20"/><use href="#m" x="200" y="20"/><use href="#m" x="80" y="30"/><use href="#m" x="90" y="30"/><use href="#m" x="100" y="30"/><use href="#m" x="120" y="30"/><use href="#m" x="130" y="30"/><use href="#m" x="170" y="30"/><use href="#m" x="190" y="30"/><use href="#m" x="200" y="30"/><use href="#m" x="90" y="40"/><use href="#m" x="120" y="40"/><use href="#m" x="140" y="40"/><use href="#m" x="160" y="40"/><use href="#m" x="190" y="40"/><use href="#m" x="200" y="40"/><use href="#m" x="110" y="50"/><use href="#m" x="120" y="50"/><use href="#m" x="140" y="50"/><use href="#m" x="160" y="50"/><use href="#m" x="170" y="50"/><use href="#m" x="180" y="50"/><use href="#m" x="200" y="50"/><use href="#m" x="80" y="60"/><use href="#m" x="100" y="60"/><use href="#m" x="120" y="60"/><use href="#m" x="140" y="60"/><use href="#m" x="160" y="60"/><use href="#m" x="180" y="60"/><use href="#m" x="200" y="60"/><use href="#m" x="80" y="70"/><use href="#m" x="0" y="80"/><use href="#m" x="60" y="80"/><use href="#m" x="80" y="80"/><use href="#m" x="100" y="80"/><use href="#m" x="120" y="80"/><use href="#m" x="130" y="80"/><use href="#m" x="140" y="80"/><use href="#m" x="170" y="80"/><use href="#m" x="180" y="80"/><use href="#m" x="210" y="80"/><use href="#m" x="0" y="90"/><use href="#m" x="10" y="90"/><use href="#m" x="20" y="90"/><use href="#m" x="40" y="90"/><use href="#m" x="80" y="90"/><use href="#m" x="90" y="90"/><use href="#m" x="100" y="90"/><use href="#m" x="130" y="90"/><use href="#m" x="140" y="90"/><use href="#m" x="150" y="90"/><use href="#m" x="170" y="90"/><use href="#m" x="180" y="90"/><use href="#m" x="190" y="90"/><use href="#m" x="40" y="100"/><use href="#m" x="60" y="100"/><use href="#m" x="80" y="100"/><use href="#m" x="90" y="100"/><use href="#m" x="110" y="100"/><use href="#m" x="130" y="100"/><use href="#m" x="140" y="100"/><use href="#m" x="150" y="100"/><use href="#m" x="160" y="100"/><use href="#m" x="170" y="100"/><use href="#m" x="0" y="110"/><use href="#m" x="20" y="110"/><use href="#m" x="30" y="110"/><use href="#m" x="80" y="110"/><use href="#m" x="90" y="110"/><use href="#m" x="100" y="110"/><use href="#m" x="110" y="110"/><use href="#m" x="120" y="110"/><use href="#m" x="140" y="110"/><use href="#m" x="160" y="110"/><use href="#m" x="190" y="110"/><use href="#m" x="210" y="110"/><use href="#m" x="0" y="120"/><use href="#m" x="10" y="120"/><use href="#m" x="20" y="120"/><use href="#m" x="30" y="120"/><use href="#m" x="50" y="120"/><use href="#m" x="60" y="120"/><use href="#m" x="90" y="120"/><use href="#m" x="110" y="120"/><use href="#m" x="120" y="120"/><use href="#m" x="160" y="120"/><use href="#m" x="190" y="120"/><use href="#m" x="20" y="130"/><use href="#m" x="30" y="130"/><use href="#m" x="50" y="130"/><use href="#m" x="90" y="130"/><use href="#m" x="110" y="130"/><use href="#m" x="120" y="130"/><use href="#m" x="140" y="130"/><use href="#m" x="150" y="130"/><use href="#m" x="160" y="130"/><use href="#m" x="200" y="130"/><use href="#m" x="210" y="130"/><use href="#m" x="0" y="140"/><use href="#m" x="40" y="140"/><use href="#m" x="60" y="140"/><use href="#m" x="140" y="140"/><use href="#m" x="150" y="140"/><use href="#m" x="160" y="140"/><use href="#m" x="180" y="140"/><use href="#m" x="200" y="140"/><use href="#m" x="210" y="140"/><use href="#m" x="0" y="150"/><use href="#m" x="20" y="150"/><use href="#m" x="50" y="150"/><use href="#m" x="70" y="150"/><use href="#m" x="80" y="150"/><use href="#m" x="90" y="150"/><use href="#m" x="110" y="150"/><use href="#m" x="140" y="150"/><use href="#m" x="160" y="150"/><use href="#m" x="180" y="150"/><use href="#m" x="190" y="150"/><use href="#m" x="0" y="160"/><use href="#m" x="10" y="160"/><use href="#m" x="20" y="160"/><use href="#m" x="60" y="160"/><use href="#m" x="110" y="160"/><use href="#m" x="120" y="160"/><use href="#m" x="130" y="160"/><use href="#m" x="140" y="160"/><use href="#m" x="150" y="160"/><use href="#m" x="170" y="160"/><use href="#m" x="190" y="160"/><use href="#m" x="0" y="170"/><use href="#m" x="10" y="170"/><use href="#m" x="20" y="170"/><use href="#m" x="40" y="170"/><use href="#m" x="50" y="170"/><use href="#m" x="70" y="170"/><use href="#m" x="90" y="170"/><use href="#m" x="100" y="170"/><use href="#m" x="130" y="170"/><use href="#m" x="150" y="170"/><use href="#m" x="160" y="170"/><use href="#m" x="180" y="170"/><use href="#m" x="190" y="170"/><use href="#m" x="0" y="180"/><use href="#m" x="10" y="180"/><use href="#m" x="20" y="180"/><use href="#m" x="30" y="180"/><use href="#m" x="50" y="180"/><use href="#m" x="60" y="180"/><use href="#m" x="70" y="180"/><use href="#m" x="80" y="180"/><use href="#m" x="90" y="180"/><use href="#m" x="100" y="180"/><use href="#m" x="120" y="180"/><use href="#m" x="150" y="180"/><use href="#m" x="160" y="180"/><use href="#m" x="170" y="180"/><use href="#m" x="180" y="180"/><use href="#m" x="190" y="180"/><use href="#m" x="210" y="180"/><use href="#m" x="0" y="190"/><use href="#m" x="20" y="190"/><use href="#m" x="30" y="190"/><use href="#m" x="50" y="190"/><use href="#m" x="70" y="190"/><use href="#m" x="90" y="190"/><use href="#m" x="120" y="190"/><use href="#m" x="140" y="190"/><use href="#m" x="150" y="190"/><use href="#m" x="190" y="190"/><use href="#m" x="210" y="190"/><use href="#m" x="0" y="200"/><use href="#m" x="30" y="200"/><use href="#m" x="40" y="200"/><use href="#m" x="50" y="200"/><use href="#m" x="60" y="200"/><use href="#m" x="90" y="200"/><use href="#m" x="150" y="200"/><use href="#m" x="160" y="200"/><use href="#m" x="170" y="200"/><use href="#m" x="200" y="200"/><use href="#m" x="210" y="200"/><use href="#m" x="80" y="210"/><use href="#m" x="100" y="210"/><use href="#m" x="110" y="210"/><use href="#m" x="120" y="210"/><use href="#m" x="130" y="210"/><use href="#m" x="140" y="210"/><use href="#m" x="150" y="210"/><use href="#m" x="180" y="210"/><use href="#m" x="190" y="210"/><use href="#m" x="200" y="210"/><use href="#m" x="80" y="70"/><use href="#m" x="80" y="80"/><use href="#m" x="100" y="80"/><use href="#m" x="120" y="80"/><use href="#m" x="130" y="80"/><use href="#m" x="140" y="80"/><use href="#m" x="170" y="80"/><use href="#m" x="180" y="80"/><use href="#m" x="210" y="80"/><use href="#m" x="220" y="80"/><use href="#m" x="250" y="80"/><use href="#m" x="260" y="80"/><use href="#m" x="270" y="80"/><use href="#m" x="80" y="90"/><use href="#m" x="90" y="90"/><use href="#m" x="100" y="90"/><use href="#m" x="130" y="90"/><use href="#m" x="140" y="90"/><use href="#m" x="150" y="90"/><use href="#m" x="170" y="90"/><use href="#m" x="180" y="90"/><use href="#m" x="190" y="90"/><use href="#m" x="240" y="90"/><use href="#m" x="260" y="90"/><use href="#m" x="80" y="100"/><use href="#m" x="90" y="100"/><use href="#m" x="110" y="100"/><use href="#m" x="130" y="100"/><use href="#m" x="140" y="100"/><use href="#m" x="150" y="100"/><use href="#m" x="160" y="100"/><use href="#m" x="170" y="100"/><use href="#m" x="220" y="100"/><use href="#m" x="230" y="100"/><use href="#m" x="240" y="100"/><use href="#m" x="250" y="100"/><use href="#m" x="80" y="110"/><use href="#m" x="90" y="110"/><use href="#m" x="100" y="110"/><use href="#m" x="110" y="110"/><use href="#m" x="120" y="110"/><use href="#m" x="140" y="110"/><use href="#m" x="160" y="110"/><use href="#m" x="190" y="110"/><use href="#m" x="210" y="110"/><use href="#m" x="220" y="110"/><use href="#m" x="240" y="110"/><use href="#m" x="250" y="110"/><use href="#m" x="270" y="110"/><use href="#m" x="280" y="110"/><use href="#m" x="90" y="120"/><use href="#m" x="110" y="120"/><use href="#m" x="120" y="120"/><use href="#m" x="160" y="120"/><use href="#m" x="190" y="120"/><use href="#m" x="220" y="120"/><use href="#m" x="250" y="120"/><use href="#m" x="270" y="120"/><use href="#m" x="280" y="120"/><use href="#m" x="90" y="130"/><use href="#m" x="110" y="130"/><use href="#m" x="120" y="130"/><use href="#m" x="140" y="130"/><use href="#m" x="150" y="130"/><use href="#m" x="160" y="130"/><use href="#m" x="200" y="130"/><use href="#m" x="210" y="130"/><use href="#m" x="220" y="130"/><use href="#m" x="240" y="130"/><use href="#m" x="250" y="130"/><use href="#m" x="260" y="130"/><use href="#m" x="280" y="130"/><use href="#m" x="140" y="140"/><use href="#m" x="150" y="140"/><use href="#m" x="160" y="140"/><use href="#m" x="180" y="140"/><use href="#m" x="200" y="140"/><use href="#m" x="210" y="140"/><use href="#m" x="240" y="140"/><use href="#m" x="70" y="150"/><use href="#m" x="80" y="150"/><use href="#m" x="90" y="150"/><use href="#m" x="110" y="150"/><use href="#m" x="140" y="150"/><use href="#m" x="160" y="150"/><use href="#m" x="180" y="150"/><use href="#m" x="190" y="150"/><use href="#m" x="220" y="150"/><use href="#m" x="250" y="150"/><use href="#m" x="260" y="150"/><use href="#m" x="270" y="150"/><use href="#m" x="110" y="160"/><use href="#m" x="120" y="160"/><use href="#m" x="130" y="160"/><use href="#m" x="140" y="160"/><use href="#m" x="150" y="160"/><use href="#m" x="170" y="160"/><use href="#m" x="190" y="160"/><use href="#m" x="230" y="160"/><use href="#m" x="260" y="160"/><use href="#m" x="280" y="160"/><use href="#m" x="70" y="170"/><use href="#m" x="90" y="170"/><use href="#m" x="100" y="170"/><use href="#m" x="130" y="170"/><use href="#m" x="150" y="170"/><use href="#m" x="160" y="170"/><use href="#m" x="180" y="170"/><use href="#m" x="190" y="170"/><use href="#m" x="220" y="170"/><use href="#m" x="240" y="170"/><use href="#m" x="260" y="170"/><use href="#m" x="280" y="170"/><use href="#m" x="70" y="180"/><use href="#m" x="80" y="180"/><use href="#m" x="90" y="180"/><use href="#m" x="100" y="180"/><use href="#m" x="120" y="180"/><use href="#m" x="150" y="180"/><use href="#m" x="160" y="180"/><use href="#m" x="170" y="180"/><use href="#m" x="180" y="180"/><use href="#m" x="190" y="180"/><use href="#m" x="210" y="180"/><use href="#m" x="220" y="180"/><use href="#m" x="230" y="180"/><use href="#m" x="250" y="180"/><use href="#m" x="260" y="180"/><use href="#m" x="280" y="180"/><use href="#m" x="70" y="190"/><use href="#m" x="90" y="190"/><use href="#m" x="120" y="190"/><use href="#m" x="140" y="190"/><use href="#m" x="150" y="190"/><use href="#m" x="190" y="190"/><use href="#m" x="210" y="190"/><use href="#m" x="250" y="190"/><use href="#m" x="90" y="200"/><use href="#m" x="150" y="200"/><use href="#m" x="160" y="200"/><use href="#m" x="170" y="200"/><use href="#m" x="200" y="200"/><use href="#m" x="210" y="200"/><use href="#m" x="220" y="200"/><use href="#m" x="230" y="200"/><use href="#m" x="240" y="200"/><use href="#m" x="260" y="200"/><use href="#m" x="280" y="200"/><use href="#m" x="80" y="210"/><use href="#m" x="100" y="210"/><use href="#m" x="110" y="210"/><use href="#m" x="120" y="210"/><use href="#m" x="130" y="210"/><use href="#m" x="140" y="210"/><use href="#m" x="150" y="210"/><use href="#m" x="180" y="210"/><use href="#m" x="190" y="210"/><use href="#m" x="200" y="210"/><use href="#m" x="240" y="210"/><use href="#m" x="250" y="210"/><use href="#m" x="100" y="220"/><use href="#m" x="110" y="220"/><use href="#m" x="130" y="220"/><use href="#m" x="140" y="220"/><use href="#m" x="150" y="220"/><use href="#m" x="160" y="220"/><use href="#m" x="170" y="220"/><use href="#m" x="190" y="220"/><use href="#m" x="200" y="220"/><use href="#m" x="220" y="220"/><use href="#m" x="240" y="220"/><use href="#m" x="250" y="220"/><use href="#m" x="260" y="220"/><use href="#m" x="110" y="230"/><use href="#m" x="120" y="230"/><use href="#m" x="130" y="230"/><use href="#m" x="150" y="230"/><use href="#m" x="160" y="230"/><use href="#m" x="190" y="230"/><use href="#m" x="200" y="230"/><use href="#m" x="240" y="230"/><use href="#m" x="250" y="230"/><use href="#m" x="270" y="230"/><use href="#m" x="100" y="240"/><use href="#m" x="120" y="240"/><use href="#m" x="130" y="240"/><use href="#m" x="160" y="240"/><use href="#m" x="190" y="240"/><use href="#m" x="200" y="240"/><use href="#m" x="210" y="240"/><use href="#m" x="220" y="240"/><use href="#m" x="230" y="240"/><use href="#m" x="240" y="240"/><use href="#m" x="270" y="240"/><use href="#m" x="90" y="250"/><use href="#m" x="100" y="250"/><use href="#m" x="130" y="250"/><use href="#m" x="150" y="250"/><use href="#m" x="180" y="250"/><use href="#m" x="190" y="250"/><use href="#m" x="210" y="250"/><use href="#m" x="230" y="250"/><use href="#m" x="280" y="250"/><use href="#m" x="100" y="260"/><use href="#m" x="120" y="260"/><use href="#m" x="140" y="260"/><use href="#m" x="150" y="260"/><use href="#m" x="160" y="260"/><use href="#m" x="190" y="260"/><use href="#m" x="210" y="260"/><use href="#m" x="220" y="260"/><use href="#m" x="240" y="260"/><use href="#m" x="250" y="260"/><use href="#m" x="260" y="260"/><use href="#m" x="270" y="260"/><use href="#m" x="100" y="270"/><use href="#m" x="120" y="270"/><use href="#m" x="130" y="270"/><use href="#m" x="150" y="270"/><use href="#m" x="160" y="270"/><use href="#m" x="210" y="270"/><use href="#m" x="220" y="270"/><use href="#m" x="240" y="270"/><use href="#m" x="250" y="270"/><use href="#m" x="260" y="270"/><use href="#m" x="280" y="270"/><use href="#m" x="80" y="280"/><use href="#m" x="100" y="280"/><use href="#m" x="110" y="280"/><use href="#m" x="150" y="280"/><use href="#m" x="160" y="280"/><use href="#m" x="170" y="280"/><use href="#m" x="190" y="280"/><use href="#m" x="220" y="280"/><use href="#m" x="230" y="280"/><use href="#m" x="240" y="280"/><use href="#m" x="250" y="280"/><use href="#m" x="260" y="280"/></clipPath></defs></svg>