<svg width="32" height="25" viewBox="0 0 32 25" fill="none" xmlns="http://www.w3.org/2000/svg">
<path d="M31.293 11.8598C30.0331 9.45782 28.5339 7.49883 26.7952 5.98289L24.9717 7.63311C26.4587 8.9191 27.7539 10.6014 28.8739 12.6966C25.892 18.2817 21.6594 20.9347 15.875 20.9347C14.1387 20.9347 12.5394 20.6928 11.0772 20.2089L9.10137 21.9969C11.1323 22.8456 13.3901 23.27 15.875 23.27C22.7633 23.27 27.9026 20.0234 31.293 13.5302C31.4293 13.269 31.5 12.9838 31.5 12.695C31.5 12.4062 31.4293 12.121 31.293 11.8598ZM29.0147 1.46036L27.4869 0.0760984C27.4603 0.051974 27.4286 0.0328361 27.3938 0.0197785C27.359 0.00672098 27.3217 0 27.284 0C27.2464 0 27.209 0.00672098 27.1742 0.0197785C27.1394 0.0328361 27.1078 0.051974 27.0812 0.0760984L23.1614 3.62173C21.0003 2.62278 18.5715 2.1233 15.875 2.1233C8.98668 2.1233 3.84734 5.3699 0.456955 11.8631C0.320677 12.1242 0.25 12.4094 0.25 12.6982C0.25 12.9871 0.320677 13.2723 0.456955 13.5334C1.81144 16.1151 3.44212 18.1845 5.34901 19.7415L1.5565 23.1727C1.50277 23.2213 1.47259 23.2873 1.47259 23.3561C1.47259 23.4249 1.50277 23.4908 1.5565 23.5395L3.08648 24.9241C3.14024 24.9727 3.21314 25 3.28915 25C3.36516 25 3.43805 24.9727 3.49182 24.9241L29.0147 1.82751C29.0414 1.80341 29.0625 1.77479 29.0769 1.7433C29.0914 1.7118 29.0988 1.67803 29.0988 1.64393C29.0988 1.60984 29.0914 1.57607 29.0769 1.54457C29.0625 1.51307 29.0414 1.48446 29.0147 1.46036ZM2.8761 12.6966C5.86151 7.11158 10.0941 4.45851 15.875 4.45851C17.8296 4.45851 19.6069 4.76209 21.2193 5.3793L18.6998 7.65938C17.5066 7.08324 16.1404 6.86942 14.8027 7.04945C13.465 7.22949 12.2266 7.79385 11.2703 8.65928C10.314 9.52471 9.6904 10.6454 9.49146 11.856C9.29252 13.0666 9.5288 14.303 10.1654 15.3828L7.17573 18.0884C5.52103 16.7667 4.09463 14.9761 2.8761 12.6966ZM11.7176 12.6966C11.7183 12.1247 11.868 11.561 12.1546 11.0513C12.4411 10.5415 12.8566 10.1002 13.3671 9.76305C13.8776 9.42591 14.4687 9.20251 15.0926 9.11098C15.7164 9.01945 16.3553 9.06239 16.9573 9.2363L11.9079 13.8059C11.7814 13.4473 11.7172 13.0731 11.7176 12.6966Z" fill="#121212"/>
<path d="M15.7317 16.3295C15.6077 16.3295 15.4855 16.3243 15.3643 16.3143L13.4713 18.0274C14.6099 18.422 15.8504 18.5097 17.0429 18.2799C18.2353 18.05 19.3287 17.5125 20.1908 16.7324C21.0529 15.9522 21.6469 14.9627 21.9008 13.8835C22.1548 12.8044 22.0579 11.6817 21.6218 10.6514L19.7288 12.3645C19.7399 12.4741 19.7457 12.5847 19.7457 12.6969C19.7459 13.1741 19.6423 13.6465 19.4407 14.0874C19.2391 14.5282 18.9434 14.9288 18.5706 15.2661C18.1978 15.6035 17.7552 15.871 17.2681 16.0535C16.781 16.236 16.2589 16.3298 15.7317 16.3295Z" fill="#121212"/>
</svg>
